<svg height="1255.856" viewBox="0 0 1148.335 1255.856" width="1148.335" xmlns="http://www.w3.org/2000/svg"><path d="m462.738 386.754s2.625 18.531 35.503 20.879c-4.306-29.748-12.413-25.598-13.979-27.164s-21.525 6.284-21.525 6.284z" fill="#031447"/><path d="m498.241 409.134c-.035 0-.071 0-.106-.003-33.7-2.408-36.768-21.36-36.882-22.166-.098-.688.29-1.352.937-1.606 20.195-7.943 22.335-6.721 23.064-6.018.132.048.43.113.653.163 3.278.72 10.1 2.219 13.819 27.915.064.449-.077.904-.387 1.236-.285.307-.684.479-1.099.479zm-33.743-21.455c1.156 3.835 6.78 15.95 31.977 18.305-3.443-21.843-8.861-23.032-11.211-23.549-.624-.138-1.267-.278-1.801-.678-1.938-.116-10.985 2.837-18.965 5.922zm18.705-6.148s0 0 0 .002c0 0 0 0 0-.002z" fill="#031447"/><path d="m711.087 196.243-227.543 171.702 34.966 14.091 235.1-176.035-21.261-15.032z" fill="#fff"/><path d="m518.511 383.535c-.189 0-.38-.036-.561-.108l-34.967-14.091c-.502-.202-.855-.658-.927-1.194-.07-.536.152-1.069.584-1.395l227.543-171.701c.161-.122.346-.21.542-.259l21.262-5.274c.422-.104.871-.021 1.228.231l21.262 15.032c.392.276.627.725.634 1.204s-.217.934-.601 1.222l-235.1 176.034c-.264.197-.58.299-.899.299zm-31.946-15.991 31.724 12.784 232.773-174.292-19.019-13.446-20.297 5.035-225.182 169.919z" fill="#031447"/><path d="m504.767 607.846-2.621.78-12.593-46.853c5.102 15.424 10.213 30.919 15.214 46.073zm3.141 9.503-3.171.95 19.996 74.411 7.302-2.221c-7.142-21.666-15.424-46.763-24.127-73.141zm14.094-4.221-9.303 2.781c8.072 24.467 16.215 49.134 24.117 73.121l5.151-1.571-19.966-74.331zm-32.899-122.435-15.875 5.712c11.093 33.52 23.587 71.361 36.34 110.001l9.833-2.941zm3.371-94.157c3.471-3.571 3.391-9.273-.18-12.734-3.561-3.471-9.263-3.391-12.724.18-17.245 17.735-20.526 41.882-20.986 54.225-.18 4.581.04 7.532.07 7.952l.06.82 3.061 11.403 4.911 18.275c1.11 3.361 2.241 6.772 3.391 10.243l16.425-5.912-8.312-30.919-1.62-6.042c-.09-2.331-.18-9.923 1.73-19.025 1.951-9.242 5.972-20.036 14.174-28.468zm-192.355 123.595-69.96 26.728-8.682-17.115 70.99-27.408zm428.163-257.814c-.42 1.601-1.37 3.071-2.791 4.121l-67.529 50.144-5.832-21.066 4.401-3.281 69.96-28.938c.64-.27 1.24-.59 1.791-.98zm-74.631 57.466-64.238 47.694-6.002-20.766 64.418-47.984zm-68.52 50.885-60.918 45.223-6.072-20.556 60.977-45.433 6.012 20.766zm-129.047 89.886-72.821 27.818c-2.401-6.382-4.711-12.544-6.912-18.415l73.441-28.358c2.011 6.022 4.101 12.364 6.292 18.955zm-77.492 29.609-73.801 28.188-7.652-17.815 74.551-28.778c2.201 5.872 4.511 12.023 6.902 18.405zm-157.825 60.277-42.932 16.405-9.092-16.745 43.352-16.735 8.673 17.075zm-167.628 64.038-32.139 12.274-.78-1.34 26.638-21.956 6.282 11.023zm119.974-45.833-59.627 22.777-9.223-16.435 59.777-23.077 9.072 16.735zm-64.348 24.587-50.894 19.435-7.102-12.444 10.453-8.623 38.331-14.794 9.213 16.425zm349.95-146.252-.06-.82c-.03-.42-.25-3.371-.07-7.952l-4.121 1.59c2.001 6.012 4.101 12.354 6.302 18.976l1.01-.39-3.061-11.403zm55.146-48.464-35.56 26.488c-1.911 9.103-1.821 16.695-1.73 19.025l1.62 6.042 41.752-30.999z" fill="#031447"/><path d="m462.738 386.754 25.742-26.999c4.347-3.919 9.159-7.291 14.328-10.039l16.562-8.805 2.483 38.622-23.611 28.101s-13.487-13.828-35.503-20.879z" fill="#fff"/><path d="m498.241 409.134c-.403 0-.79-.163-1.073-.452-.133-.136-13.514-13.653-34.887-20.498-.492-.158-.869-.558-.996-1.058-.128-.501.011-1.032.367-1.406l25.741-27c.026-.027.054-.054.082-.079 4.438-4 9.359-7.448 14.628-10.248l16.563-8.806c.729-.388 1.639-.113 2.028.62.389.731.111 1.64-.62 2.028l-16.563 8.806c-5.036 2.677-9.741 5.971-13.986 9.79l-24.072 25.251c17.412 6.078 29.047 15.984 32.673 19.356l23.039-27.418c.533-.635 1.479-.716 2.113-.184.635.533.717 1.479.184 2.113l-24.072 28.648c-.272.324-.669.518-1.093.534-.019 0-.037 0-.056 0z" fill="#031447"/><g fill="#8487f6"><path d="m459.647 160.151c-18.906-15.583-58.988-41.089-59.113-72.041 7.588 9.301 26.46 6.98 43.362 28.216 17.999 22.615 15.673 33.804 15.751 43.825z"/><path d="m352.563 261.208c-4.289-17.475-29.496-48.606-24.856-72.159 5.695 15.58 17.442 26.193 23.603 33.29s13.501 23.858 1.253 38.869z"/><path d="m344.964 290.009c-15.992 14.119-47.865 13.944-65.886 26.537 14.788-26.817 43.426-32.395 65.886-26.537z"/><path d="m301.992 261.944c-12.997-11.746-50.072-5.645-75.303 17.083 31.108 17.343 56.686-11.071 75.303-17.083z"/><path d="m308.037 232.45c-11.194-18.076-27.102-28.988-35.801-37.04s-11.751-24.112-14.312-30.112c21.983 4.577 48.328 28.867 50.113 67.152z"/><path d="m272.444 238.137c-16.154-7.365-33.575-5.559-51.027.322-17.452 5.882-21.471 7.154-25.18 7.159 13.899 13.236 25.584 18.838 38.924 13.293s34.49-13.052 37.283-20.774z"/><path d="m265.119 217.415c-12.492-19.079-26.466-32.254-42.917-33.944-11.474-1.179-29.535 8.032-51.068-.121 34.936 30.235 73.632 25.15 93.985 34.065z"/><path d="m590.188 0c-57.458 18.287-62.656 63.138-60.58 89.748 36.299-18.687 51.646-53.051 60.58-89.748z"/><path d="m452.342 57.92c33.886 14.557 39.813 43.081 45.632 72.329-8.817.921-17.352-15.536-20.435-24.904-3.083-9.369-17.826-34.74-25.197-47.425z"/><path d="m601.659 99.616c-23.421 4.366-36.735 2.127-47.38 4.786s-30.87 12.327-43.753 28.665c29.617-1.876 82.315-11.7 91.133-33.45z"/><path d="m487.205 192.349c8.596 7.293 20.367 4.047 36.645-1.209s41.98-6.43 51.999-23.427c-20.157 1.35-31.641-4.417-44.893-1.644-13.185 2.759-37.708 15.751-43.751 26.28z"/><path d="m496.998 225.982c26.542 5.918 62.91 3.755 95.885-9.125-16.764-14.26-58.552-15.697-95.885 9.125z"/><path d="m457.606 212.079c-19.227-11.565-49.844-45.175-62.558-64.784 25.046 28.055 66.991 40.219 62.558 64.784z"/><path d="m446.146 265.373c11.641-24.731-14.289-41.954-32.848-53.054s-39.069-24.988-43.874-34.547c7.206 32.23 19.803 50.461 38.061 61.195 18.259 10.733 28.807 18.952 38.661 26.406z"/><path d="m587.67 256.577c-36.383 17.365-59.127 20.5-84.615 4.315 24.617-9.694 49.669-9.057 59.239-6.445 9.569 2.612 20.421 3.496 25.377 2.131z"/><path d="m435.697 295.232c-30.845-17.925-49.576-36.639-58.005-48.967 27.371 11.966 50.556 30.784 58.005 48.967z"/><path d="m472.854 305.94c13.891 15.223 67.781 31.087 86.398 11.422-15.899-6.194-17.586-17.3-37.107-20.522-14.496-2.393-41.473-.646-49.291 9.099z"/></g><path d="m433.736 412.739c-.764 0-1.416-.58-1.491-1.356-4.034-41.865 8.117-108.881 33.338-183.865 22.13-65.799 50.817-126.07 71.384-149.978.539-.627 1.486-.7 2.115-.158.628.54.699 1.487.158 2.115-20.337 23.641-48.795 83.51-70.814 148.977-25.09 74.599-37.189 141.161-33.194 182.622.079.824-.524 1.558-1.35 1.637-.049.005-.097.007-.146.007z" fill="#031447"/><path d="m427.779 405.476c-.641 0-1.235-.414-1.433-1.059-21.434-69.635-77.84-132.438-172.443-192.001-.701-.441-.912-1.368-.47-2.068s1.367-.912 2.069-.471c40.208 25.315 72.485 50.252 98.678 76.237 37.15 36.855 62.396 76.361 75.034 117.42.244.792-.201 1.631-.992 1.875-.147.045-.296.066-.442.066z" fill="#031447"/><path d="m503.437 138.406c-.438 0-.867-.191-1.16-.549l-10.131-12.347c-.526-.64-.433-1.585.208-2.11.639-.527 1.585-.433 2.11.208l9.346 11.39 10.162-5.504c.726-.395 1.639-.124 2.033.605.395.728.123 1.639-.605 2.033l-11.25 6.093c-.225.122-.471.181-.713.181z" fill="#031447"/><path d="m481.037 194.353c-.504 0-.977-.253-1.255-.679l-25.861-39.539c-.454-.693-.26-1.623.434-2.076.694-.454 1.623-.26 2.076.434l25.373 38.793 11.447-.937c.81-.063 1.55.547 1.617 1.373.067.825-.547 1.55-1.373 1.617l-12.336 1.009c-.041.003-.082.005-.122.005z" fill="#031447"/><path d="m467.014 229.47c-.527 0-1.02-.277-1.291-.735l-13.039-22.024c-.422-.713-.186-1.634.526-2.056.715-.42 1.634-.186 2.056.526l12.569 21.231 34.905-2.314c.811-.052 1.542.571 1.597 1.397.055.827-.571 1.542-1.397 1.597l-35.826 2.375c-.033.002-.066.003-.1.003z" fill="#031447"/><path d="m452.789 275.892c-.449 0-.891-.202-1.184-.577-9.184-11.768-14.486-21.324-14.539-21.419-.4-.726-.137-1.638.589-2.038.725-.4 1.638-.138 2.038.589.05.091 4.956 8.927 13.51 20.033 13.421-6.741 43.912-12.083 55.6-14.131 1.026-.18 1.9-.333 2.595-.458.817-.145 1.595.396 1.742 1.211.146.815-.396 1.596-1.211 1.742-.699.125-1.577.279-2.608.46-11.896 2.084-43.497 7.621-55.809 14.401-.229.126-.477.187-.723.187z" fill="#031447"/><path d="m479.54 308.492c-.088 0-.177-.008-.266-.023-.244-.043-24.487-4.322-33.861-2.296-.48.104-.977-.033-1.334-.363-5.697-5.255-15.673-16.203-16.095-16.667-.558-.612-.513-1.562.1-2.119.613-.559 1.563-.514 2.119.1.1.109 9.667 10.609 15.358 15.967 10.377-1.794 33.248 2.248 34.241 2.426.815.146 1.358.925 1.213 1.74-.13.727-.762 1.236-1.475 1.236z" fill="#031447"/><path d="m348.838 284.494c-.126 0-.253-.016-.381-.049-.802-.21-1.281-1.03-1.071-1.831.042-.158 4.139-15.932 4.124-26.731 0-.828.669-1.501 1.498-1.502h.002c.828 0 1.499.67 1.5 1.498.016 11.191-4.048 26.835-4.221 27.495-.177.674-.785 1.12-1.45 1.12z" fill="#031447"/><path d="m331.317 268.5c-.123 0-.249-.015-.373-.047-.25-.063-25.09-6.382-34.103-4.791-.809.143-1.593-.4-1.738-1.217-.144-.815.4-1.594 1.216-1.738 9.647-1.697 34.324 4.571 35.369 4.84.803.206 1.287 1.022 1.081 1.825-.174.678-.783 1.128-1.452 1.128z" fill="#031447"/><path d="m355.347 292.426c-.103 0-.207-.011-.311-.032-5.499-1.159-10.202-1.632-15.277-.169-.797.229-1.628-.23-1.857-1.026s.23-1.627 1.026-1.856c6.006-1.73 11.588-.968 16.727.116.811.171 1.329.967 1.158 1.777-.149.706-.772 1.19-1.466 1.19z" fill="#031447"/><path d="m318.322 256.984c-.572 0-1.119-.329-1.369-.884-.092-.204-9.214-20.479-12.371-28.96-.289-.776.106-1.641.882-1.93.777-.287 1.64.106 1.929.883 3.122 8.389 12.203 28.572 12.294 28.774.34.756.003 1.644-.752 1.984-.2.09-.409.132-.615.132z" fill="#031447"/><path d="m265.576 241.531c-.584 0-1.139-.343-1.381-.914-.324-.763.033-1.644.795-1.967 6.805-2.887 23.113-4.313 28.62-3.067.808.183 1.314.986 1.131 1.794s-.985 1.316-1.794 1.132c-4.938-1.119-20.699.323-26.786 2.903-.191.081-.39.119-.585.119z" fill="#031447"/><path d="m257.402 494.633 57.833-69.004 96.174 74.097-72.33 91.978z" fill="#8487f6"/><path d="m195.279 416.793s0 0-.001-.001c.024.022.018.016.001.001z" fill="#defe48"/><path d="m307.402 386.178c-7.472-7.122-6.62-20.759-14.093-27.88-7.166-6.841-14.347-13.684-21.522-20.519-.684-.721-1.082-1.116-1.009-1.042-.075-.074-.371-.366-.281-.278-.051-.049-.139-.136-.173-.168-.001-.001-.002-.002-.003-.003l-.009-.009s0 0 0 0l-.002-.002-.094-.091c-.111-.055-29.847-30.672-67.248-7.117-5.717 3.556-9.51 7.468-9.305 7.273-.01.008-1.076 1.006-2.587 2.692l.045-.051c-.059.067-.335.379-.379.429-16.332 18.578-17.871 44.972-5.938 64.734 4.392 7.317 10.348 12.546 10.276 12.471.055.049 14.282 13.577 21.009 20.015 22.568 21.564 51.023 33.921 73.584 55.476-17.436-16.362 46.26-79.79 62.258-64.544-14.687-14.009-29.842-27.376-44.529-41.384z" fill="#defe48"/><path d="m359.781 421.666c-13.152 11.652-45.053 41.11-72.57 72.434-.008.058-3.999 6.566-3.948 6.632.166.2.325.392.51.565-22.561-21.555-45.117-43.103-67.684-64.666-4.583-23.141 58.231-85.269 77.22-78.333 7.472 7.122 14.938 14.235 22.41 21.357 14.687 14.009 29.375 28.003 44.062 42.012z" fill="#fff"/><path d="m283.772 502.797c-.368 0-.737-.135-1.026-.406-.017-.016-.033-.031-.049-.047l-67.645-64.628c-.223-.214-.375-.49-.435-.794-2.941-14.85 18.922-42.94 40.986-61.831 7.918-6.778 27.497-22.121 38.22-18.202.194.071.371.181.52.323l66.473 63.369c.304.289.472.693.464 1.112-.007.42-.19.817-.505 1.096-6.715 5.949-41.741 37.371-72.359 72.212-.188.331-.513.868-1.087 1.815-.633 1.045-1.657 2.737-2.251 3.741.316.559.248 1.28-.217 1.771-.295.312-.691.469-1.089.469zm-66.292-66.91 65.412 62.494c.455-.779 1.066-1.789 1.871-3.118.555-.916 1.005-1.657 1.113-1.848.056-.109.126-.212.208-.306 29.22-33.262 62.453-63.429 71.482-71.481l-65.054-62.017c-6.427-2.01-19.763 4.749-34.958 17.759-21.006 17.984-42.094 45.278-40.074 58.517z" fill="#031447"/><ellipse cx="321.781" cy="461.483" fill="#8487f6" rx="55.04" ry="17.586" transform="matrix(.6904154 -.72341315 .72341315 .6904154 -234.224 375.645)"/><path d="m289.132 504.604c-2.613 0-4.732-.702-6.281-2.119-2.718-2.486-4.738-8.104 1.075-20.74 9.243-20.095 33.32-45.92 53.671-57.57 10.771-6.165 18.979-7.477 23.113-3.694 2.718 2.486 4.737 8.104-1.075 20.74-9.243 20.094-33.32 45.92-53.671 57.57-6.735 3.855-12.47 5.813-16.832 5.813zm65.292-83.252c-3.752 0-9.105 1.859-15.336 5.426-19.892 11.388-43.415 36.607-52.436 56.221-3.888 8.452-4.535 14.748-1.776 17.272 3.002 2.744 10.328 1.22 19.597-4.084 19.892-11.388 43.415-36.608 52.436-56.221 3.888-8.452 4.535-14.748 1.776-17.272-.983-.899-2.432-1.342-4.26-1.342z" fill="#031447"/><ellipse cx="238.917" cy="378.775" fill="#8487f6" rx="5.557" ry="4.898" transform="matrix(.70245124 -.71173187 .71173187 .70245124 -198.498 282.752)"/><path d="m381.563 395.315-6.214-13.114c-9.075-19.15-9.124-36.858-.137-49.864 8.045-11.642 22.271-17.827 38.049-16.545 20.887 1.697 39.736 16.173 50.422 38.723l6.214 13.114-5.422 2.568-6.214-13.113c-15.243-32.167-45.302-41.465-65.558-31.863-8.331 3.948-14.298 10.883-16.804 19.528-2.894 9.989-1.209 22.052 4.871 34.883l6.214 13.115-5.422 2.568z" fill="#031447"/><path d="m411.46 378.703-6.214-13.113c-6.718-14.176-8.521-27.704-5.212-39.122 2.99-10.319 10.091-18.587 19.997-23.281 22.919-10.861 56.698-.843 73.55 34.717l6.214 13.114-5.422 2.568-6.214-13.113c-15.244-32.166-45.304-41.46-65.559-31.864-14.208 6.733-25.859 25.023-11.932 54.412l6.214 13.114z" fill="#031447"/><path d="m463.662 740.686 216.975-68.237 45.535-29.878s-89.373 11.873-126.949 21.267-113.119 46.97-114.685 47.753-20.876 29.095-20.876 29.095z" fill="#031447"/><path d="m340.322 374.713-34.792 29.355 158.132 336.618 37.413-27.138s-29.063-130.469-46.285-173.266c-17.222-42.796-114.468-165.569-114.468-165.569z" fill="#031447"/><path d="m463.664 742.185c-.056 0-.111-.003-.168-.009-.823-.092-1.416-.834-1.325-1.657l4.697-42.272c.054-.479.334-.903.755-1.141.42-.237.93-.257 1.366-.055l32.716 15.135c.752.348 1.079 1.239.731 1.991-.349.752-1.238 1.081-1.991.731l-30.825-14.26-4.467 40.202c-.086.767-.735 1.334-1.489 1.334z" fill="#031447"/><path d="m469.231 701.734c-.56 0-1.097-.314-1.354-.853l-51.663-107.98c-.357-.747-.042-1.643.706-2.001.747-.356 1.643-.041 2 .706l51.664 107.98c.357.747.041 1.643-.706 2.001-.209.1-.43.146-.646.146z" fill="#031447"/><path d="m340.322 374.713 227.196-36.403 158.654 304.261-225.097 70.976z" fill="#defe48"/><path d="m348.592 553.867-32.403 19.154-20.966 11.963-33.82 19.306-56.266 32.109-17.465 9.973-57.616 32.88-60.017-144.561 50.034-41.892 15.975-13.384 48.654-40.742c.01-.01.02-.01.02-.01l43.272-6.392 24.637-3.641 34.51-5.102 61.452 130.339z" fill="#defe48"/><path d="m261.403 604.29-131.348 74.961-60.017-144.561 114.663-96.018c.01-.01.02-.01.02-.01l76.682 165.627z" fill="#defe48"/><path d="m205.137 636.399-17.465 9.973-67.599-153.574 15.974-13.384z" fill="#031447"/><path d="m316.189 573.021-20.966 11.963-67.229-152.713 24.637-3.641z" fill="#031447"/><path d="m255.832 593.754c-.566 0-1.108-.322-1.362-.87l-70.638-152.572c-.348-.751-.021-1.643.731-1.991.751-.35 1.643-.021 1.992.731l70.638 152.572c.348.751.021 1.643-.731 1.991-.204.095-.418.139-.629.139z" fill="#031447"/><path d="m337.938 756.573s-81.183 65.119-124.836 100.109l-42.862 13.604-72.461-179.091 50.424-40.522 33.39-26.828 70.85-56.926 85.494 189.654z" fill="#fff"/><path d="m170.24 871.785c-.596 0-1.156-.357-1.391-.938l-72.46-179.091c-.248-.613-.065-1.317.451-1.731l154.664-124.276c.362-.291.839-.396 1.289-.29.451.108.827.42 1.018.843l85.495 189.655c.281.623.104 1.358-.429 1.786 0 0-81.183 65.118-124.836 100.109-.144.115-.308.203-.484.259l-42.862 13.604c-.15.048-.303.07-.454.07zm-70.652-180.12 71.521 176.771 41.272-13.099c40.992-32.858 114.719-91.994 123.711-99.207l-84.221-186.829-152.284 122.364z" fill="#031447"/><path d="m465.934 720.962-154.874 104.63-97.958 31.089-42.862 13.604 167.688-113.702.01-.01z" fill="#031447"/><path d="m199.562 826.829-3.827 2.657-11.4-27.863 3.741-2.353z" fill="#031447"/><path d="m180.491 807.974 13.812-8.787-10.746-5.173z" fill="#031447"/><path d="m203.984 806.812 18.136-12.264 4.827 10.222-18.788 12.48z" fill="#031447"/><path d="m465.934 720.962-127.996 35.611-85.495-189.655 50.925-11.423 31.129-6.972 43.562-9.773z" fill="#fff"/><path d="m337.938 758.073c-.577 0-1.12-.335-1.367-.884l-85.495-189.655c-.185-.411-.176-.883.026-1.286.201-.403.574-.695 1.014-.794l125.616-28.168c.676-.153 1.376.184 1.679.813l87.875 182.213c.192.4.198.865.015 1.27s-.536.708-.964.827l-127.997 35.61c-.134.037-.269.055-.402.055zm-83.371-190.095 84.209 186.805 125.028-34.784-86.579-179.524-122.659 27.504z" fill="#031447"/><path d="m809.521 1005.257c-15.671-4.475-29.661-24.086-31.255-43.8-1.595-19.714 9.815-32.071 25.486-27.597 15.671 4.475 29.661 24.086 31.255 43.8 1.595 19.714-9.815 32.071-25.486 27.597z" fill="#defe48"/><path d="m780.951 920.865c.105-.076.224-.13.337-.194.451-.256.907-.502 1.374-.728l-21.743 10.521c-42.943 20.772 4.726 120.15 47.948 99.233l21.743-10.521c-40.958 14.375-84.533-73.166-49.66-98.311z" fill="#031447"/><path d="m846.983 981.082c-2.26-28.043-22.168-55.925-44.448-62.291-22.29-6.358-38.516 11.208-36.248 39.251 2.261 28.034 22.168 55.916 44.457 62.283 22.281 6.357 38.508-11.208 36.238-39.243zm-37.463 24.174c-15.671-4.475-29.661-24.086-31.255-43.8-1.595-19.714 9.815-32.071 25.486-27.597 15.671 4.475 29.661 24.086 31.255 43.8 1.595 19.714-9.815 32.071-25.486 27.597z" fill="#fff"/><path d="m819.568 1023.113c-2.982 0-6.079-.445-9.234-1.346-22.81-6.515-43.239-35.048-45.541-63.604-1.271-15.72 3.131-28.944 12.079-36.281 6.984-5.728 16.242-7.336 26.074-4.532 22.806 6.515 43.23 35.051 45.532 63.612 1.272 15.715-3.13 28.937-12.078 36.274-4.74 3.887-10.529 5.877-16.832 5.877zm-25.954-104.136c-5.575 0-10.61 1.756-14.84 5.224-8.176 6.705-12.183 18.995-10.991 33.721 2.21 27.414 21.667 54.761 43.374 60.961 8.979 2.563 17.051 1.19 23.341-3.967 8.177-6.704 12.182-18.992 10.99-33.713-2.21-27.419-21.663-54.769-43.365-60.969-2.944-.84-5.79-1.257-8.509-1.257zm22.117 88.688c-2.14 0-4.36-.32-6.623-.966-16.192-4.624-30.699-24.865-32.338-45.122-.906-11.202 2.25-20.64 8.658-25.894 5.027-4.12 11.68-5.281 18.734-3.267 16.193 4.624 30.7 24.865 32.339 45.122.905 11.202-2.251 20.64-8.659 25.894-3.414 2.799-7.58 4.232-12.111 4.232zm-18.248-73.229c-3.818 0-7.263 1.199-10.153 3.568-5.636 4.621-8.395 13.125-7.569 23.331 1.546 19.114 15.081 38.171 30.172 42.479 6.17 1.763 11.703.827 16.009-2.702 5.636-4.62 8.396-13.124 7.57-23.331-1.546-19.114-15.081-38.171-30.173-42.479-2.027-.579-3.986-.866-5.855-.866z" fill="#031447"/><path d="m376.618 1228.168c-16.189-8.276-27.274-32.758-24.77-54.681s17.657-32.989 33.846-24.713 27.274 32.758 24.77 54.681-17.657 32.989-33.845 24.713z" fill="#defe48"/><path d="m363.537 1129.635c.131-.06.273-.094.411-.14.549-.183 1.101-.354 1.661-.501l-26.067 6.83c-51.483 13.48-20.726 132.534 31.093 118.956l26.067-6.83c-47.931 6.906-76.757-98.309-33.165-118.315z" fill="#031447"/><path d="m422.835 1209.782c3.571-31.182-12.209-65.993-35.225-77.765-23.028-11.764-44.575 3.965-48.137 35.15-3.569 31.173 12.212 65.984 35.237 77.758 23.018 11.762 44.566-3.968 48.126-35.143zm-46.218 18.385c-16.189-8.276-27.274-32.758-24.77-54.681s17.657-32.989 33.846-24.713 27.274 32.758 24.77 54.681-17.657 32.989-33.845 24.713z" fill="#fff"/><path d="m389.853 1250.31c-5.181 0-10.547-1.352-15.826-4.049-23.502-12.018-39.672-47.575-36.044-79.265 1.99-17.423 9.627-30.9 20.953-36.976 8.827-4.737 19.252-4.501 29.358.66 23.497 12.018 39.659 47.58 36.033 79.271-1.989 17.42-9.625 30.895-20.95 36.97-4.213 2.261-8.791 3.389-13.523 3.389zm-17.376-120.718c-4.227 0-8.303 1.022-12.123 3.072-10.446 5.604-17.513 18.241-19.39 34.673-3.497 30.551 11.948 64.757 34.43 76.252 9.329 4.769 18.516 5.006 26.565.688 10.445-5.604 17.512-18.238 19.388-34.666 3.499-30.554-11.941-64.764-34.418-76.259-4.905-2.506-9.771-3.761-14.451-3.761zm14.792 102.81c-3.713 0-7.556-.968-11.333-2.898-16.669-8.522-28.144-33.728-25.578-56.188 1.416-12.399 6.872-22.001 14.968-26.343 6.34-3.398 13.815-3.234 21.05.464 16.669 8.522 28.144 33.728 25.578 56.187-1.416 12.399-6.872 22.001-14.968 26.343-3.029 1.625-6.319 2.436-9.717 2.436zm-9.968-5.57c6.425 3.285 12.742 3.455 18.267.491 7.216-3.87 12.103-12.632 13.405-24.039 2.436-21.321-8.314-45.175-23.962-53.175-6.424-3.285-12.74-3.455-18.267-.492-7.216 3.87-12.103 12.632-13.405 24.039-2.436 21.321 8.314 45.176 23.962 53.176z" fill="#031447"/><path d="m711.087 196.243s.783 5.839 10.177 12.525c17.34 12.343 26.616 12.264 26.616 12.264s11.775-15.851 1.566-23.224c-19.962-14.417-38.359-1.566-38.359-1.566z" fill="#031447"/><path d="m747.874 222.533c-.607 0-10.152-.209-27.48-12.542-9.812-6.984-10.758-13.284-10.794-13.549-.074-.557.168-1.107.628-1.43.192-.135 19.508-13.289 40.098 1.579 2.596 1.875 4.154 4.392 4.631 7.479 1.258 8.147-5.58 17.465-5.872 17.857-.28.378-.722.602-1.191.605h-.019zm-35.045-25.62c.638 1.768 2.745 5.964 9.305 10.633 13.921 9.909 22.534 11.628 25.005 11.925 1.45-2.163 5.748-9.162 4.851-14.948-.355-2.294-1.475-4.092-3.422-5.497-16.644-12.021-31.925-4.387-35.738-2.112zm-1.742-.67h.01z" fill="#031447"/><path d="m1113.039 832.701-4.891-22.622-.074-.041-.024-.113-262.995-147.452c-14.254-55.346-84.044-326.553-94.487-370.436-1.25-5.252-2.511-10.323-3.721-15.234-10.693-43.152-15.365-66.519 3.981-84.764l-13.724-14.554c-20.166 19.015-22.036 41.412-17.695 67.94-.06.03-.13.04-.19.07l-526.881 212.288c-8.342 3.361-16.094 8.052-22.936 13.894l-165.848 141.271c-4.111 3.501-4.741 9.613-1.44 13.884 1.991 2.581 4.981 3.921 8.002 3.921.52 0 1.05-.04 1.571-.12l143.411 244.91c-1.69 9.073 8.092 16.785 30.119 14.944 9.513-.79 221.283-70.23 311.849-100.039l1.61 15.914.12-.04-2.281 3.621c-1.21 1.951-122.125 194.816-151.623 245.28-30.489 52.145-17.225 79.633-.44 114.433 1.581 3.271 3.211 6.652 4.872 10.183l1.45 3.101 23.357 15.874c2.151 1.46 4.591 2.161 7.012 2.161 4.001 0 7.932-1.92 10.353-5.471 3.881-5.712 2.401-13.494-3.311-17.375l-17.695-12.033c-1.19-2.501-2.371-4.931-3.511-7.312-7.922-16.405-13.894-28.808-15.134-41.982 1.28-.15 2.551-.54 3.741-1.21l116.113-65.079c.05 1.981.15 3.981.29 6.002 1.614 22.705 8.732 45.216 20.23 64.364.66 1.101 1.344 2.184 2.032 3.262.138.216.268.439.407.654.893 1.382 1.808 2.746 2.748 4.088l3.594 5.129 33.176 1.025c.132.004.262.006.393.006 6.727 0 12.282-5.347 12.491-12.117.08-2.6-.64-5.038-1.937-7.079-2.127-3.464-5.897-5.827-10.266-5.966l-20.433-.63c-9.778-15.923-16.05-35.384-17.4-54.351-1.5-21.106 3.001-39.606 12.676-52.09 10.472-13.512 59.819-76.422 112.26-143.225l163.918 94.121 9.343 20.946c2.811 6.312 10.203 9.143 16.514 6.322 6.302-2.811 9.133-10.203 6.322-16.505l-12.664-28.388-167.948-96.222c56.003-71.33 111.537-142.017 123.677-157.469l44.109-13.472 280.789 157.424 2.484 11.49c.283 1.306.765 2.517 1.401 3.615 2.613 4.673 8.053 7.307 13.555 6.117 6.75-1.459 11.038-8.114 9.579-14.864zm-964.734-179.142 49.594-39.231 48.354 89.166-49.604 36.31zm44.282 89.225-42.692 31.249-47.834-83.874 42.272-33.45zm9.283-131.608 35.47-28.068 46.964 92.526-33.98 24.877-48.454-89.336zm44.193-32.989 68.399-24.627 42.322 98.588-63.528 19.025-47.193-92.987zm73.111-26.328 72.741-26.187c12.884 34.34 26.818 71.48 39.111 104.25l-69.42 20.786-42.432-98.848zm77.452-27.878 71.89-25.878c11.503 34.79 24.197 73.221 36.25 109.741l-68.94 20.636c-12.254-32.68-26.258-69.98-39.201-104.5zm76.602-27.578 62.878-22.637 33.85 114.553-60.387 18.085c-12.754-38.641-25.247-76.482-36.34-110.001zm176.201 78.573 69.07-20.686 20.236 73.181-68.119 20.766-21.186-73.261zm16.405 74.721-66.529 20.286-21.726-73.501 67.059-20.076zm-19.185-84.334-34.42-119.004 69.51-25.017 34.09 123.305zm-4.791 1.43-67.109 20.096-33.93-114.823 66.699-24.007zm-69.07 31.119 21.726 73.521-57.696 17.595c-7.902-23.987-16.045-48.654-24.117-73.121zm-21.196 192.445 171.719-100.589c-24.067 30.639-66.039 84.064-107.951 137.439l-64.128-36.74zm258.234-184.563-66.309 20.216-20.226-73.151 67.729-20.286c6.772 26.418 13.234 51.545 18.805 73.221zm-21.296-82.914-67.909 20.336-34.17-123.575 69.3-24.947c10.033 39.401 21.736 85.134 32.779 128.187zm-65.229-258.264c1.28 5.502 2.681 11.163 4.121 16.995 1.21 4.861 2.451 9.893 3.681 15.064 3.131 13.134 11.533 46.483 22.166 88.285l-69.49 25.017-32.009-115.773 71.53-29.589zm-76.192 31.519 31.949 115.533-69.61 25.067-32.299-111.662zm-74.611 30.859 32.229 111.442-66.749 24.027-31.909-107.981zm-71.08 29.409 31.849 107.751-63.188 22.747c-16.085-48.604-28.808-86.895-34.38-103.31zm-70.31 29.088c5.542 16.415 18.595 55.756 34.26 103.11l-72.26 26.017c-16.415-43.763-30.669-81.773-36.811-98.178zm-79.433 32.86c6.202 16.555 20.376 54.366 36.73 97.958l-73.181 26.347-39.821-92.747 76.272-31.559zm-149.713 61.938 68.82-28.468 39.731 92.526-69.01 24.847-44.083-86.855c1.49-.72 3.001-1.41 4.541-2.051zm-21.206 12.744c2.531-2.091 5.181-4.021 7.932-5.792l44.043 86.775-35.69 28.238-45.973-84.744 29.689-24.477zm-33.62 27.718 45.923 84.654-49.704 39.321-46.323-82.654 50.104-41.322zm-54.025 44.553 46.273 82.563-42.332 33.5-46.283-81.143zm-72.891 60.107 26.638-21.956 46.223 81.053-26.137 20.686-46.723-79.783zm51.825 88.495 26.047-20.606 47.744 83.704-25.787 18.886zm93.797 148.203c-1.83 1.21-3.441 2.471-4.811 3.761l-35.9-61.308 25.687-18.815 35.69 62.588zm24.847-16.555-35.81-62.778 42.632-31.209 36.5 65.118-43.322 28.868zm47.504-31.649-36.611-65.309 49.484-36.23 37.04 68.279-49.914 33.26zm54.096-36.04-37.151-68.48 33.76-24.707 36.2 71.32-32.809 21.866zm41.462-26.928-35.89-70.7 62.898-18.835 30.869 71.891-57.877 17.645zm62.688-19.115-30.859-71.861 68.97-20.656c11.803 31.459 21.756 57.957 27.248 72.601zm70.15-21.386c-4.991-13.304-15.064-40.131-27.238-72.561l68.56-20.526c8.702 26.378 16.985 51.475 24.127 73.141zm4.311 317.591-116.213 65.139c2.371-7.472 6.182-15.725 11.793-25.317 26.988-46.173 131.498-213.131 148.803-240.749l32.129-10.313 52.485 30.128c-51.605 65.739-99.709 127.076-110.052 140.42-8.383 10.813-13.994 24.417-16.575 39.731-.81.21-1.601.53-2.371.96z" fill="#8487f6"/><path d="m540.893 1163.5c-18.545-3.831-36.45-25.347-40.002-48.054-3.551-22.706 8.602-38.011 27.148-34.18 18.545 3.831 36.45 25.347 40.001 48.054 3.551 22.706-8.602 38.011-27.148 34.18z" fill="#defe48"/><path d="m500.497 1068.179c.115-.097.248-.17.374-.254.501-.335 1.008-.66 1.529-.962l-24.285 14.07c-47.966 27.78 15.857 138.816 64.134 110.844l24.285-14.07c-46.218 20.196-104.275-77.478-66.037-109.628z" fill="#031447"/><path d="m582.215 1132.251c-5.041-32.299-30.519-62.888-56.886-68.34-26.378-5.441-43.662 16.315-38.611 48.614 5.041 32.289 30.519 62.878 56.896 68.33 26.368 5.441 43.653-16.315 38.601-48.604zm-41.322 31.249c-18.545-3.831-36.45-25.347-40.002-48.054-3.551-22.706 8.602-38.011 27.148-34.18 18.545 3.831 36.45 25.347 40.001 48.054 3.551 22.706-8.602 38.011-27.148 34.18z" fill="#fff"/><path d="m551.416 1183.179c-2.625 0-5.334-.282-8.104-.854-26.902-5.561-52.955-36.769-58.076-69.567-2.819-18.025 1.114-33.651 10.79-42.871 7.54-7.185 18.06-9.829 29.606-7.443 26.896 5.562 52.943 36.776 58.065 69.578 2.819 18.021-1.113 33.644-10.789 42.862-5.729 5.459-13.178 8.296-21.492 8.296zm-34.034-118.613c-7.511 0-14.082 2.533-19.287 7.492-8.953 8.531-12.56 23.196-9.895 40.236 4.943 31.667 29.938 61.765 55.718 67.093 10.713 2.212 20.02-.098 26.92-6.676 8.954-8.53 12.561-23.192 9.895-40.228-4.942-31.672-29.933-61.773-55.707-67.104-2.638-.544-5.191-.814-7.644-.814zm29.007 101.015c-1.878 0-3.817-.202-5.799-.611-19.071-3.939-37.545-26.052-41.181-49.291-2.005-12.821.811-23.952 7.724-30.538 5.409-5.153 12.938-7.051 21.211-5.342 19.072 3.939 37.545 26.052 41.18 49.291 2.005 12.821-.811 23.952-7.724 30.538-4.113 3.918-9.454 5.953-15.411 5.953zm-23.934-83.408c-5.165 0-9.681 1.737-13.253 5.141-6.19 5.896-8.68 16.066-6.828 27.902 3.457 22.106 20.874 43.108 38.823 46.816 7.379 1.521 13.788-.058 18.533-4.576 6.19-5.897 8.68-16.067 6.828-27.903-3.457-22.106-20.872-43.108-38.822-46.816-1.823-.376-3.588-.563-5.281-.563z" fill="#031447"/><path d="m1109.479 872.365c-17.239-2.21-35.128-20.648-39.964-41.178-4.837-20.53 5.216-35.385 22.454-33.175 17.239 2.21 35.128 20.648 39.964 41.178 4.837 20.53-5.215 35.385-22.454 33.175z" fill="#defe48"/><path d="m1065.85 787.959c.099-.097.215-.173.324-.259.435-.342.876-.675 1.332-.987l-21.24 14.573c-41.952 28.774 24.213 125.923 66.437 96.952l21.24-14.573c-40.883 21.711-100.837-63.613-68.093-95.706z" fill="#031447"/><path d="m1145.108 840.881c-6.871-29.205-32.323-55.416-56.833-58.562-24.519-3.136-38.815 17.981-31.935 47.186 6.87 29.195 32.323 55.407 56.842 58.552 24.509 3.137 38.806-17.981 31.927-47.175zm-35.63 31.484c-17.239-2.21-35.128-20.648-39.964-41.178-4.837-20.53 5.216-35.385 22.454-33.175 17.239 2.21 35.128 20.648 39.964 41.178 4.837 20.53-5.215 35.385-22.454 33.175z" fill="#fff"/><path d="m1117.845 889.86c-1.583 0-3.203-.104-4.854-.315-25.054-3.215-51.122-29.994-58.111-59.697-3.85-16.338-1.333-30.953 6.905-40.097 6.425-7.132 15.898-10.298 26.68-8.921 25.048 3.216 51.112 30.002 58.104 59.707 3.849 16.334 1.331 30.946-6.906 40.09-5.439 6.037-13.065 9.233-21.817 9.233zm-34.36-106.355c-7.898 0-14.566 2.81-19.471 8.254-7.569 8.402-9.834 22.034-6.214 37.401 6.727 28.587 31.656 54.341 55.572 57.408 9.916 1.271 18.232-1.48 24.062-7.949 7.569-8.401 9.835-22.031 6.215-37.395-6.727-28.591-31.653-54.349-55.565-57.419-1.573-.201-3.108-.301-4.599-.301zm29.281 90.575c-1.135 0-2.295-.075-3.478-.227-17.776-2.279-36.273-21.266-41.233-42.323-2.741-11.633-.933-22.057 4.961-28.597 4.618-5.124 11.42-7.4 19.144-6.411 17.775 2.279 36.272 21.265 41.233 42.323 2.741 11.633.933 22.056-4.961 28.596-3.911 4.34-9.388 6.639-15.666 6.639zm-3.097-3.203c6.815.875 12.536-1.008 16.534-5.444 5.225-5.798 6.781-15.238 4.27-25.899-4.698-19.942-22.057-37.901-38.694-40.034-6.818-.876-12.536 1.007-16.534 5.443-5.225 5.798-6.781 15.238-4.27 25.9 4.697 19.942 22.056 37.901 38.694 40.034z" fill="#031447"/><path d="m711.087 196.243c9.394 1.305 28.182 7.828 36.793 24.79 8.306-6.739 27.421-26.144 41.365-40.57 8.81-9.115 7.978-23.802-1.807-31.86-8.553-7.043-21.036-6.519-28.968 1.216l-43.86 42.771z" fill="#fff"/><path d="m747.88 222.533c-.104 0-.209-.011-.313-.033-.443-.094-.82-.384-1.025-.788-8.204-16.162-26.276-22.68-35.661-23.983-.56-.077-1.027-.462-1.212-.995s-.054-1.125.338-1.531l3.523-3.653 43.893-42.804c8.493-8.284 21.811-8.845 30.969-1.3 4.985 4.106 8.055 10.158 8.421 16.604.366 6.448-1.999 12.812-6.489 17.457-14.354 14.849-33.205 33.963-41.498 40.691-.27.219-.604.335-.945.335zm-33.757-27.278c10.058 2.11 25.921 8.848 34.208 23.449 8.769-7.487 26.302-25.282 39.836-39.283 3.967-4.104 5.974-9.503 5.65-15.2-.323-5.696-2.928-10.832-7.332-14.459-7.976-6.569-19.569-6.084-26.969 1.132l-43.859 42.771-1.534 1.591z" fill="#031447"/></svg>